<?xml version="1.0" encoding="UTF-8"?>
<svg width="24" height="24" viewBox="0 0 24 24" fill="none" xmlns="http://www.w3.org/2000/svg">
  <path d="M14.5 2C13.6716 2 13 2.67157 13 3.5V9.5C13 10.3284 13.6716 11 14.5 11H20.5C21.3284 11 22 10.3284 22 9.5V3.5C22 2.67157 21.3284 2 20.5 2H14.5Z" stroke="white" stroke-width="2"/>
  <path d="M3.5 13C2.67157 13 2 13.6716 2 14.5V20.5C2 21.3284 2.67157 22 3.5 22H9.5C10.3284 22 11 21.3284 11 20.5V14.5C11 13.6716 10.3284 13 9.5 13H3.5Z" stroke="white" stroke-width="2"/>
  <path d="M14.5 13C13.6716 13 13 13.6716 13 14.5V20.5C13 21.3284 13.6716 22 14.5 22H20.5C21.3284 22 22 21.3284 22 20.5V14.5C22 13.6716 21.3284 13 20.5 13H14.5Z" stroke="white" stroke-width="2"/>
  <path d="M3.5 2C2.67157 2 2 2.67157 2 3.5V9.5C2 10.3284 2.67157 11 3.5 11H9.5C10.3284 11 11 10.3284 11 9.5V3.5C11 2.67157 10.3284 2 9.5 2H3.5Z" stroke="white" stroke-width="2"/>
</svg> 